<svg xmlns="http://www.w3.org/2000/svg" xmlns:xlink="http://www.w3.org/1999/xlink" viewBox="0 0 30 30"><defs><linearGradient id="a" x1="-618.24" y1="275.77" x2="-618.24" y2="277.24" gradientTransform="matrix(13.94, 0, 0, -7.49, 8631.79, 2090.29)" gradientUnits="userSpaceOnUse"><stop offset="0" stop-color="#ffe59a"/><stop offset="1" stop-color="#ffffd5"/></linearGradient><linearGradient id="b" x1="-624.09" y1="296.4" x2="-624.09" y2="297.87" gradientTransform="matrix(15.85, 0, 0, -15.85, 9909.93, 4724.84)" gradientUnits="userSpaceOnUse"><stop offset="0" stop-color="#fd5900"/><stop offset="1" stop-color="#ffde00"/></linearGradient><linearGradient id="c" x1="-424.62" y1="210.92" x2="-424.62" y2="212.39" gradientTransform="matrix(2.79, 0, 0, -2.79, 1198, 599.16)" gradientUnits="userSpaceOnUse"><stop offset="0" stop-color="#ffedad"/><stop offset="1" stop-color="#ffffe5"/></linearGradient></defs><path d="M24.83,30H5.17A5.19,5.19,0,0,1,0,24.83V5.17A5.19,5.19,0,0,1,5.17,0H24.83A5.19,5.19,0,0,1,30,5.17V24.83A5.19,5.19,0,0,1,24.83,30" fill="#2a2a5e"/><path d="M11.39,14.07a.7.7,0,0,0,0-1,.72.72,0,0,0-.49-.2H5.44a.69.69,0,0,0-.69.69.67.67,0,0,0,.2.48l1.17,1.17V21.6L5,22.76a.7.7,0,0,0,0,1,.68.68,0,0,0,.49.2H10.9a.68.68,0,0,0,.69-.68.7.7,0,0,0-.2-.49L10.22,21.6V15.24ZM23.9,21.6V15.24l1.16-1.17a.69.69,0,0,0,0-1,.74.74,0,0,0-.49-.2H19.1a.69.69,0,0,0-.68.69.67.67,0,0,0,.2.48l1.17,1.17V21.6l-1.17,1.16a.68.68,0,0,0,0,1,.67.67,0,0,0,.48.2h5.47a.69.69,0,0,0,.69-.68.71.71,0,0,0-.21-.49Zm-5.68-7.53a.68.68,0,0,0,0-1,.72.72,0,0,0-.48-.2H12.27a.68.68,0,0,0-.68.69.67.67,0,0,0,.2.48L13,15.24V21.6l-1.17,1.16a.68.68,0,0,0,0,1,.66.66,0,0,0,.48.2h5.47a.67.67,0,0,0,.68-.68.7.7,0,0,0-.2-.49L17.05,21.6V15.24Z" fill="url(#a)"/><path d="M26,22.56H4a.69.69,0,0,0-.69.68h0V26a.68.68,0,0,0,.69.68H26a.68.68,0,0,0,.69-.68V23.25A.69.69,0,0,0,26,22.56ZM4.07,14.27H25.94a.67.67,0,0,0,.68-.68.68.68,0,0,0-.23-.52L15.45,3.51a.67.67,0,0,0-.9,0L3.62,13.07a.67.67,0,0,0-.07,1A.66.66,0,0,0,4.07,14.27Z" fill="url(#b)"/><path d="M15,11.54a2.05,2.05,0,1,1,2-2.06h0A2.05,2.05,0,0,1,15,11.54Z" fill="url(#c)"/></svg>