<svg xmlns="http://www.w3.org/2000/svg" viewBox="0 0 30 30"><path d="M24.83,30H5.17A5.19,5.19,0,0,1,0,24.83V5.17A5.19,5.19,0,0,1,5.17,0H24.83A5.19,5.19,0,0,1,30,5.17V24.83A5.19,5.19,0,0,1,24.83,30" fill="#ff9914"/><path d="M22.82,15.58a4.28,4.28,0,0,0-2.48-1.46,3.33,3.33,0,0,0,1.85-3.65,3.55,3.55,0,0,0-.51-1.61,3.17,3.17,0,0,0-1.17-1.1,6.16,6.16,0,0,0-1.6-.64,13.18,13.18,0,0,0-2-.32V3.24H14.76V6.7L13,6.73V3.24H10.86V6.8H6.49V9.12H8.05a1.12,1.12,0,0,1,1.26,1v4.06h0v5.69a.75.75,0,0,1-.78.72H6.93l-.44,2.58h4.37v3.6H13V23.2h1.73v3.55h2.18v-3.6A17.58,17.58,0,0,0,19,23a9.15,9.15,0,0,0,1.72-.49,4.78,4.78,0,0,0,1.37-.83A3.67,3.67,0,0,0,23,20.37a5.15,5.15,0,0,0,.46-1.77A4.13,4.13,0,0,0,22.82,15.58ZM13.08,9.27h.56l.76,0c.2,0,.47,0,.82,0a8.62,8.62,0,0,1,.87.11,5.75,5.75,0,0,1,.78.23,2.22,2.22,0,0,1,.68.4,2,2,0,0,1,.43.6,1.8,1.8,0,0,1,.17.82,2,2,0,0,1-.12.73,1.39,1.39,0,0,1-.39.54,3.31,3.31,0,0,1-.52.38,2.34,2.34,0,0,1-.68.26l-.73.16a6.87,6.87,0,0,1-.78.08l-.71,0q-.24,0-.66,0h-.48V9.27ZM19,18.9a2.05,2.05,0,0,1-.34.57,2.11,2.11,0,0,1-.56.42,4.43,4.43,0,0,1-.67.3,5.38,5.38,0,0,1-.79.2,7.83,7.83,0,0,1-.8.12l-.83.06-.75,0H13.07V15.79h.67l.92,0c.23,0,.56,0,1,.05a9.38,9.38,0,0,1,1,.12c.31.07.62.16.92.26a2.82,2.82,0,0,1,.82.44,2.19,2.19,0,0,1,.52.65A2,2,0,0,1,19,18.9Z" fill="#fff"/></svg>