<svg xmlns="http://www.w3.org/2000/svg" viewBox="0 0 30 30"><path d="M24.83,30H5.17A5.19,5.19,0,0,1,0,24.83V5.17A5.19,5.19,0,0,1,5.17,0H24.83A5.19,5.19,0,0,1,30,5.17V24.83A5.19,5.19,0,0,1,24.83,30" fill="#111"/><path d="M23.94,13.07V23.29h-14c.86-.86,1.63-1.66,2.44-2.4.15-.14.48-.1.73-.1h8.26v-5.1H12.41c0-.85,0-1.63,0-2.4,0-.23.36-.47.6-.63,2.14-1.44,4.28-2.86,6.42-4.28L20,8H8.57c0,.28,0,.58,0,.88,0,4.13,0,8.26,0,12.38a1.89,1.89,0,0,1-.61,1.49c-.6.59-1.13,1.25-1.7,1.88L6,24.46V5.39H24a22.45,22.45,0,0,1,0,2.32c0,.23-.34.48-.58.64-2.11,1.43-4.23,2.83-6.35,4.24-.16.1-.3.22-.66.48Z" fill="#fff"/></svg>