<svg xmlns="http://www.w3.org/2000/svg" viewBox="0 0 30 30"><path d="M24.83,30H5.17A5.19,5.19,0,0,1,0,24.83V5.17A5.19,5.19,0,0,1,5.17,0H24.83A5.19,5.19,0,0,1,30,5.17V24.83A5.19,5.19,0,0,1,24.83,30" fill="#2a2a5e"/><rect x="4.14" y="7.72" width="23.63" height="12.65" rx="0.6" fill="#66d5a2"/><rect x="4.41" y="7.99" width="23.08" height="12.11" rx="0.6" fill="#00b964"/><path d="M6,12.35v3.4a3,3,0,0,1,3,3h14a3,3,0,0,1,3-3v-3.4a3,3,0,0,1-3-3H9a3,3,0,0,1-3,3Z" fill="#66d5a2"/><circle cx="15.85" cy="14.05" r="3.3" fill="#00b964"/><rect x="3.51" y="8.36" width="23.63" height="12.65" rx="0.6" fill="#66d5a2"/><rect x="3.78" y="8.63" width="23.08" height="12.11" rx="0.6" fill="#00b964"/><path d="M5.37,13v3.4a3,3,0,0,1,3,3h14a3,3,0,0,1,3-3h0V13a3,3,0,0,1-3-3H8.34A3,3,0,0,1,5.37,13Z" fill="#66d5a2"/><circle cx="15.21" cy="14.68" r="3.3" fill="#00b964"/><rect x="2.87" y="8.99" width="23.63" height="12.65" rx="0.6" fill="#66d5a2"/><rect x="3.14" y="9.26" width="23.08" height="12.11" rx="0.6" fill="#00b964"/><path d="M4.73,13.62V17a3,3,0,0,1,3,3h14a3,3,0,0,1,3-3v-3.4a3,3,0,0,1-3-3H7.71A3,3,0,0,1,4.73,13.62Z" fill="#66d5a2"/><circle cx="14.58" cy="15.32" r="3.3" fill="#00b964"/><rect x="2.23" y="9.63" width="23.63" height="12.65" rx="0.6" fill="#66d5a2"/><rect x="2.5" y="9.9" width="23.08" height="12.11" rx="0.6" fill="#00b964"/><path d="M4.1,14.25v3.4a3,3,0,0,1,3,3H21a3,3,0,0,1,3-3v-3.4a3,3,0,0,1-3-3H7.07A3,3,0,0,1,4.1,14.25Z" fill="#66d5a2"/><circle cx="13.94" cy="15.95" r="3.3" fill="#00b964"/></svg>