<svg xmlns="http://www.w3.org/2000/svg" viewBox="0 0 30 30"><path d="M24.83,30H5.17A5.19,5.19,0,0,1,0,24.83V5.17A5.19,5.19,0,0,1,5.17,0H24.83A5.19,5.19,0,0,1,30,5.17V24.83A5.19,5.19,0,0,1,24.83,30" fill="#00d632"/><path d="M20.89,10.35a.71.71,0,0,0,1,0l1.42-1.47a.77.77,0,0,0,0-1.1,11.32,11.32,0,0,0-3.8-2.17l.45-2.14a.75.75,0,0,0-.72-.91H16.47a.74.74,0,0,0-.72.59l-.4,1.92c-3.64.18-6.72,2-6.72,5.82,0,3.28,2.55,4.68,5.24,5.65s3.9,1.33,3.9,2.7-1.34,2.24-3.33,2.24a7.21,7.21,0,0,1-5.18-2.09.75.75,0,0,0-1,0h0L6.69,20.92a.77.77,0,0,0,0,1.09,10,10,0,0,0,4.41,2.48l-.42,2a.75.75,0,0,0,.72.91l2.74,0a.74.74,0,0,0,.73-.59l.4-1.92c4.38-.29,7.05-2.71,7.05-6.23,0-3.24-2.66-4.61-5.88-5.73C14.6,12.29,13,11.82,13,10.41S14.49,8.5,16,8.5a7.59,7.59,0,0,1,4.92,1.86Z" fill="#fff"/></svg>