<svg xmlns="http://www.w3.org/2000/svg" width="16.515" height="19.618" viewBox="0 0 16.515 19.618">
  <path id="copy_2_" data-name="copy (2)" d="M10.384,19.618H3.065A3.069,3.069,0,0,1,0,16.553V6.169A3.069,3.069,0,0,1,3.065,3.1h7.319a3.069,3.069,0,0,1,3.065,3.065V16.553A3.069,3.069,0,0,1,10.384,19.618ZM3.065,4.636A1.534,1.534,0,0,0,1.533,6.169V16.553a1.534,1.534,0,0,0,1.533,1.533h7.319a1.534,1.534,0,0,0,1.533-1.533V6.169a1.534,1.534,0,0,0-1.533-1.533Zm13.449,10V3.065A3.069,3.069,0,0,0,13.449,0H4.943a.766.766,0,0,0,0,1.533h8.506a1.534,1.534,0,0,1,1.533,1.533V14.637a.766.766,0,1,0,1.533,0Zm0,0" fill="#fff"/>
</svg>
