<svg xmlns="http://www.w3.org/2000/svg" width="19.696" height="19.695" viewBox="0 0 19.696 19.695">
  <g id="Group_1482" data-name="Group 1482" transform="translate(-844 -1206)">
    <g id="close_9_" data-name="close (9)" transform="translate(844 1205.64)">
      <path id="Path_4191" data-name="Path 4191" d="M19.192,16.3,3.756.865a1.723,1.723,0,0,0-2.437,0l-.814.812a1.723,1.723,0,0,0,0,2.437L15.941,19.55a1.723,1.723,0,0,0,2.437,0l.812-.812a1.721,1.721,0,0,0,0-2.437Zm0,0" transform="translate(0)" fill="#fff"/>
      <path id="Path_4192" data-name="Path 4192" d="M15.941.867.5,16.3a1.723,1.723,0,0,0,0,2.437l.812.812a1.723,1.723,0,0,0,2.437,0L19.191,4.117a1.722,1.722,0,0,0,0-2.437L18.379.868a1.723,1.723,0,0,0-2.438,0Zm0,0" transform="translate(0 -0.002)" fill="#fff"/>
    </g>
  </g>
</svg>
