<svg xmlns="http://www.w3.org/2000/svg" width="19.379" height="19.379" viewBox="0 0 19.379 19.379">
  <path id="curve-arrow" d="M13.933,19.878A1.513,1.513,0,0,0,15,19.434l3.708-3.7a2.272,2.272,0,0,0,0-3.217L15,8.817a1.517,1.517,0,0,0-2.589,1.072v3.479a10.913,10.913,0,0,1-10.9-10.9V1.257A.757.757,0,1,0,0,1.257V2.468a12.334,12.334,0,0,0,3.636,8.779,12.334,12.334,0,0,0,8.779,3.636,1.516,1.516,0,0,0,1.514-1.514V9.889h0l0,0,0,0,3.708,3.7a.758.758,0,0,1,0,1.073l-3.708,3.7,0,0h0v-.83a.757.757,0,0,0-1.514,0v.83a1.519,1.519,0,0,0,1.519,1.516Zm0,0" transform="translate(-0.5 19.379) rotate(-90)" fill="#61738a"/>
</svg>
