<svg xmlns="http://www.w3.org/2000/svg" viewBox="0 0 30 30"><path d="M24.83,30H5.17A5.19,5.19,0,0,1,0,24.83V5.17A5.19,5.19,0,0,1,5.17,0H24.83A5.19,5.19,0,0,1,30,5.17V24.83A5.19,5.19,0,0,1,24.83,30" fill="#20203f"/><path d="M6.73,17.07,15,28.18V21.7h0Z" fill="#8b8b8b"/><path d="M6.73,15.63,15,12h0V1.82Z" fill="#8c8c8c"/><path d="M6.73,15.63,15,20.1V12Z" fill="#383838"/><path d="M15,1.82h0V12h0l8.26,3.59Z" fill="#333"/><path d="M15,12h0v8.08h0l8.26-4.48Z" fill="#151515"/><path d="M15,21.7h0v6.48h0l8.26-11.11Z" fill="#313131"/></svg>