<svg xmlns="http://www.w3.org/2000/svg" width="13.004" height="13.004" viewBox="0 0 13.004 13.004">
  <g id="approval" transform="translate(0)">
    <path id="Path_4197" data-name="Path 4197" d="M1.662,190.377q0-.235.018-.467a4.619,4.619,0,0,0-1.294,5.411L0,197.648a.381.381,0,0,0,.438.438l2.327-.381a4.619,4.619,0,0,0,5.412-1.294q-.232.018-.467.018a6.059,6.059,0,0,1-6.052-6.052Z" transform="translate(0 -185.087)" fill="#31d11e"/>
    <path id="Path_4198" data-name="Path 4198" d="M100.724,0a5.29,5.29,0,1,0,2.135,10.131l2.712.444a.381.381,0,0,0,.438-.438l-.444-2.712A5.292,5.292,0,0,0,100.724,0Zm1.8,4.47-2.01,2.159a.381.381,0,0,1-.272.121h-.007a.381.381,0,0,1-.269-.112L98.933,5.6a.381.381,0,1,1,.539-.539l.755.755,1.741-1.87a.381.381,0,0,1,.558.519Z" transform="translate(-93.01 0)" fill="#31d11e"/>
  </g>
</svg>
