<svg xmlns="http://www.w3.org/2000/svg" width="31.478" height="24.958" viewBox="0 0 31.478 24.958">
  <g id="icon-handshake" transform="translate(0 -53.024)">
    <g id="Group_1351" data-name="Group 1351" transform="translate(0 53.024)">
      <path id="Path_1864" data-name="Path 1864" d="M31.344,62.443l-5.414-8.956a.922.922,0,0,0-1.16-.367l-3.309,1.454-5.1-1.511a.922.922,0,0,0-.708.077L9.776,56.388,6.391,54.221a.922.922,0,0,0-1.286.3L.133,62.745A.922.922,0,0,0,.426,64l2.092,1.334L2.1,65.9a2.583,2.583,0,0,0,2.061,4.131c.05,0,.1,0,.149-.005a2.576,2.576,0,0,0,2.51,1.995q.073,0,.146,0a2.583,2.583,0,0,0,2.509,2c.05,0,.1,0,.149-.005a2.582,2.582,0,0,0,4.579.962l.083-.111,3.688,2.625a2.707,2.707,0,0,0,4.222-1.649A2.714,2.714,0,0,0,24.9,74.758a2.669,2.669,0,0,0,.5-1.561,2.7,2.7,0,0,0,1.875-1.1,2.666,2.666,0,0,0,.488-1.274A2.712,2.712,0,0,0,30.038,69.7a2.688,2.688,0,0,0-.625-3.763l-.895-.637,2.53-1.6A.922.922,0,0,0,31.344,62.443ZM4.752,67.888A.738.738,0,1,1,3.571,67L4.781,65.39a.738.738,0,0,1,1.181.885Zm2.657,1.991a.738.738,0,1,1-1.181-.885l1.209-1.614h0l.851-1.135a.738.738,0,1,1,1.181.885Zm2.657,1.991a.738.738,0,1,1-1.181-.885l2.06-2.749h0l.375-.5a.733.733,0,0,1,.486-.288.745.745,0,0,1,.106-.008.738.738,0,0,1,.589,1.18Zm3.866.377-1.209,1.614a.738.738,0,1,1-1.181-.885l1.209-1.614a.738.738,0,0,1,1.181.885Zm14.757-4.258a.836.836,0,0,1-.148.63.866.866,0,0,1-1.2.2l-.668-.475h0l-3.723-2.647a.922.922,0,0,0-1.069,1.5l3.716,2.642a.847.847,0,0,1,.192,1.177.866.866,0,0,1-1.2.2l-.292-.208h0l-2.875-2.044a.922.922,0,1,0-1.069,1.5L23.214,72.5a.847.847,0,0,1,.192,1.177.866.866,0,0,1-1.2.2l-1.023-.728h0l-1.548-1.1a.922.922,0,0,0-1.069,1.5l1.521,1.081a.841.841,0,0,1,.158,1.148.867.867,0,0,1-1.2.2l-3.651-2.6.02-.026A2.583,2.583,0,0,0,14.2,69.37a2.582,2.582,0,0,0-2.656-3.749,2.627,2.627,0,0,0-.29.059,2.585,2.585,0,0,0-3.694-1.215,2.58,2.58,0,0,0-3.885-.581l-1.5-.956,4.016-6.644L7.94,57.4l-1.156.639a.922.922,0,0,0-.474.745,3.674,3.674,0,0,0,.387,1.9,3.717,3.717,0,0,0,4.971,1.64l4.281-2.138,2.17.032,8.212,5.781h0l2.011,1.431A.842.842,0,0,1,28.689,67.989Zm-1.8-3.846-7.941-5.591a.922.922,0,0,0-.517-.168l-2.68-.039h-.014a.922.922,0,0,0-.412.1L10.845,60.68a1.87,1.87,0,0,1-2.5-.822,1.836,1.836,0,0,1-.164-.48l8.026-4.439,5.056,1.5a.922.922,0,0,0,.633-.04l2.877-1.264L29.3,62.623Z" transform="translate(0 -53.024)" fill="#61738a"/>
    </g>
  </g>
</svg>
