<svg xmlns="http://www.w3.org/2000/svg" width="18.986" height="18.986" viewBox="0 0 18.986 18.986">
  <g id="magnifier" transform="translate(-0.001 0)">
    <g id="Group_1399" data-name="Group 1399" transform="translate(0.001 0)">
      <path id="Path_1894" data-name="Path 1894" d="M16.734,13.148A7.7,7.7,0,0,0,5.839,2.253a7.554,7.554,0,0,0-1.159,9.3.324.324,0,0,1-.045.386L.7,15.867a1.8,1.8,0,0,0-.275,2.57l.119.119a1.8,1.8,0,0,0,2.57-.275l3.922-3.922a.329.329,0,0,1,.394-.053A7.554,7.554,0,0,0,16.734,13.148ZM7.261,11.725a5.692,5.692,0,1,1,8.05,0A5.7,5.7,0,0,1,7.261,11.725Z" transform="translate(-0.001 0)" fill="#fff"/>
      <g id="Group_1398" data-name="Group 1398" transform="translate(6.957 3.083)">
        <path id="Path_1895" data-name="Path 1895" d="M114.547,54.569a.8.8,0,0,1-.732-1.105,5.011,5.011,0,0,1,6.56-2.659.8.8,0,1,1-.62,1.464,3.419,3.419,0,0,0-4.476,1.814A.8.8,0,0,1,114.547,54.569Z" transform="translate(-113.752 -50.409)" fill="#fff"/>
      </g>
    </g>
  </g>
</svg>
