<svg xmlns="http://www.w3.org/2000/svg" viewBox="0 0 30 30"><path d="M24.83,30H5.17A5.19,5.19,0,0,1,0,24.83V5.17A5.19,5.19,0,0,1,5.17,0H24.83A5.19,5.19,0,0,1,30,5.17V24.83A5.19,5.19,0,0,1,24.83,30" fill="#020068"/><path d="M13.4,8.07h7.42c4,0,5.48,2,5.25,5-.38,4.89-3.34,7.59-7.26,7.59h-2c-.54,0-.9.36-1,1.32l-.84,5.62a.61.61,0,0,1-.53.6H9.75c-.44,0-.6-.34-.48-1.06l2.84-18A1.14,1.14,0,0,1,13.3,8.06Z" fill="#009ee3" fill-rule="evenodd"/><path d="M8.75,1.88h7.42A9.29,9.29,0,0,1,22.4,3.41,5,5,0,0,1,24,7.62c-.45,5.67-3.84,8.85-8.39,8.85H11.89c-.62,0-1,.42-1.2,1.53l-1,6.51c-.06.43-.25.67-.57.7H4.51C4,25.21,3.82,24.83,4,24L7.24,3.11A1.32,1.32,0,0,1,8.63,1.87Z" fill="#113984" fill-rule="evenodd"/><path d="M10.8,17.34l1.3-8.21a1.14,1.14,0,0,1,1.19-1.07h7.52a7.32,7.32,0,0,1,3,.54c-.75,5.05-4,7.85-8.28,7.85H11.87A1.09,1.09,0,0,0,10.8,17.34Z" fill="#172c70" fill-rule="evenodd"/></svg>