<svg xmlns="http://www.w3.org/2000/svg" width="26" height="26" viewBox="0 0 26 26">
  <path id="direct" d="M24.9.044.578,7.991A.839.839,0,0,0,.416,9.514l9.192,5.345a.839.839,0,0,0,.922-.052l2.584-1.919-1.919,2.584a.839.839,0,0,0-.052.922l5.345,9.192a.839.839,0,0,0,1.522-.161L25.958,1.1A.839.839,0,0,0,24.9.044ZM17,23.124l-4.126-7.1,4.975-6.7a.839.839,0,0,0-1.173-1.173l-6.7,4.975L2.878,9,23.85,2.152ZM8.806,18.381,3.237,23.95a.839.839,0,0,1-1.186-1.186L7.62,17.2a.839.839,0,0,1,1.186,1.186Zm-7.357.211a.839.839,0,0,1,0-1.186l2.2-2.2a.839.839,0,0,1,1.186,1.186l-2.2,2.2a.839.839,0,0,1-1.186,0Zm9.344,2.577a.839.839,0,0,1,0,1.186l-2.2,2.2a.839.839,0,1,1-1.186-1.186l2.2-2.2a.839.839,0,0,1,1.186,0Z" transform="translate(0 -0.001)" fill="#fff"/>
</svg>
