<svg xmlns="http://www.w3.org/2000/svg" viewBox="0 0 30 30"><path d="M24.83,30H5.17A5.19,5.19,0,0,1,0,24.83V5.17A5.19,5.19,0,0,1,5.17,0H24.83A5.19,5.19,0,0,1,30,5.17V24.83A5.19,5.19,0,0,1,24.83,30" fill="#1a1918"/><path d="M23.81,6.93A4.85,4.85,0,0,0,19,11.78a4.69,4.69,0,0,0,.2,1.29l-1.95,3.06a3.57,3.57,0,0,0-.8-.09,3.46,3.46,0,0,0-2.25.83l-5.8-2.54a1.49,1.49,0,0,0,0-.21,3.53,3.53,0,1,0-1.56,2.93l6.08,2.68a3.52,3.52,0,0,0,7-.17,3.34,3.34,0,0,0-.05-.43l3.27-2.56a4.78,4.78,0,0,0,.65.07,4.86,4.86,0,1,0,0-9.71ZM3.21,14.12a1.65,1.65,0,1,1,1.65,1.66h0A1.66,1.66,0,0,1,3.21,14.12Zm13.2,7.15a1.71,1.71,0,1,1,1.71-1.71h0A1.71,1.71,0,0,1,16.41,21.27Zm7.4-6.72a2.77,2.77,0,1,1,2.78-2.77,2.77,2.77,0,0,1-2.78,2.77Z" fill="#fff"/></svg>