<svg xmlns="http://www.w3.org/2000/svg" xmlns:xlink="http://www.w3.org/1999/xlink" viewBox="0 0 30 30"><defs><linearGradient id="a" x1="15" y1="7.43" x2="15" y2="19.52" gradientUnits="userSpaceOnUse"><stop offset="0" stop-color="#e6001d"/><stop offset="0.13" stop-color="#e2001d"/><stop offset="0.26" stop-color="#d6001b"/><stop offset="0.4" stop-color="#c10119"/><stop offset="0.53" stop-color="#a50116"/><stop offset="0.67" stop-color="#800212"/><stop offset="0.8" stop-color="#53030d"/><stop offset="0.94" stop-color="#1f0407"/><stop offset="1" stop-color="#040404"/></linearGradient></defs><path d="M24.83,30H5.17A5.19,5.19,0,0,1,0,24.83V5.17A5.19,5.19,0,0,1,5.17,0H24.83A5.19,5.19,0,0,1,30,5.17V24.83A5.19,5.19,0,0,1,24.83,30" fill="#fff"/><polygon points="8.77 5.83 8.77 3.11 5.28 3.11 3.73 3.11 1.79 3.11 1.79 26.89 3.73 26.89 5.28 26.89 8.77 26.89 8.77 24.17 5.28 24.17 5.28 5.83 8.77 5.83" fill="#040404"/><polygon points="21.23 24.17 21.23 26.89 24.72 26.89 26.27 26.89 28.21 26.89 28.21 3.11 26.27 3.11 24.72 3.11 21.23 3.11 21.23 5.83 24.72 5.83 24.72 24.17 21.23 24.17" fill="#040404"/><polygon points="22.59 13.39 16.61 13.39 16.61 7.41 13.39 7.41 13.39 13.39 7.41 13.39 7.41 16.61 13.39 16.61 13.39 22.59 16.61 22.59 16.61 16.61 22.59 16.61 22.59 13.39" fill="url(#a)"/></svg>