<svg xmlns="http://www.w3.org/2000/svg" xmlns:xlink="http://www.w3.org/1999/xlink" viewBox="0 0 30 30"><defs><linearGradient id="a" x1="-271" y1="220.04" x2="-271" y2="221.04" gradientTransform="matrix(23, 0, 0, -23.06, 6248.28, 5101.19)" gradientUnits="userSpaceOnUse"><stop offset="0" stop-color="#fff"/><stop offset="0.22" stop-color="#787878"/><stop offset="0.42" stop-color="#9d9d9c"/><stop offset="1" stop-color="#fff"/></linearGradient></defs><path d="M24.83,30H5.17A5.19,5.19,0,0,1,0,24.83V5.17A5.19,5.19,0,0,1,5.17,0H24.83A5.19,5.19,0,0,1,30,5.17V24.83A5.19,5.19,0,0,1,24.83,30" fill="#2a2a5e"/><path d="M22.14,10.52a.53.53,0,0,1,.13.38.55.55,0,0,1,0,.18.85.85,0,0,1-.25.51.67.67,0,0,1-.47.18.45.45,0,0,1-.35-.13.52.52,0,0,1-.13-.39.49.49,0,0,1,0-.17.92.92,0,0,1,.26-.52.7.7,0,0,1,.46-.18A.54.54,0,0,1,22.14,10.52Zm4.36-4.6v9.3l-.15,4a2.41,2.41,0,0,1-2,2.35h-3.2l.45,4.05a.83.83,0,0,1-.75.9.82.82,0,0,1-.65-.2L15,21.57H6A2.45,2.45,0,0,1,3.5,19.12V6.92a14.13,14.13,0,0,1,.1-1.45H3.55a2.3,2.3,0,0,1,1-1.6,2.48,2.48,0,0,1,1.35-.4H24a2.5,2.5,0,0,1,2.5,2.45Zm-13,4.22a2.16,2.16,0,0,0-.69-1.69,3.14,3.14,0,0,0-2.21-.66,4.39,4.39,0,0,0-1.79.38A3.65,3.65,0,0,0,7.37,9.34a4.42,4.42,0,0,0-.82,2H9.41a2.49,2.49,0,0,1,.26-.87.47.47,0,0,1,.41-.23c.25,0,.37.15.37.44a.91.91,0,0,1,0,.23A3.55,3.55,0,0,1,9.1,12.76a34.92,34.92,0,0,1-3.17,2.33L5.55,17.3H12.4l.42-2.37h-3A10.54,10.54,0,0,0,12.24,13a4.28,4.28,0,0,0,1.24-2.28A2.56,2.56,0,0,0,13.53,10.14Zm5.5.16a1.31,1.31,0,0,0-.32-1A1.15,1.15,0,0,0,17.8,9a1.63,1.63,0,0,0-.78.18,2.12,2.12,0,0,0-.6.47L16.53,9H14.92l-.72,4.1h1.61l.39-2.21v0a.78.78,0,0,1,.23-.46.66.66,0,0,1,.45-.17.45.45,0,0,1,.48.48.77.77,0,0,1,0,.15L17,13.13h1.61L19,10.75a2.28,2.28,0,0,0,0-.45Zm5.42-2.55H22.84l-.33,1.84a.84.84,0,0,0-.38-.45A1.35,1.35,0,0,0,21.42,9a1.81,1.81,0,0,0-.88.23,2,2,0,0,0-.71.67,2.86,2.86,0,0,0-.4,1,3.92,3.92,0,0,0-.05.59,1.8,1.8,0,0,0,.38,1.22,1.25,1.25,0,0,0,1,.44,1.6,1.6,0,0,0,.71-.16,1.42,1.42,0,0,0,.52-.45l-.1.56h1.62Z" fill="url(#a)"/></svg>