<svg xmlns="http://www.w3.org/2000/svg" xmlns:xlink="http://www.w3.org/1999/xlink" viewBox="0 0 30 30"><defs><linearGradient id="a" x1="-308.3" y1="220.04" x2="-308.3" y2="221.04" gradientTransform="matrix(23, 0, 0, -23.05, 7104.71, 5100.95)" gradientUnits="userSpaceOnUse"><stop offset="0" stop-color="#00a1dd"/><stop offset="0.22" stop-color="#0056a4"/><stop offset="0.42" stop-color="#0056a4"/><stop offset="1" stop-color="#42a1da"/></linearGradient></defs><path d="M24.83,30H5.17A5.19,5.19,0,0,1,0,24.83V5.17A5.19,5.19,0,0,1,5.17,0H24.83A5.19,5.19,0,0,1,30,5.17V24.83A5.19,5.19,0,0,1,24.83,30" fill="#2a2a5e"/><path d="M26.4,5.47h.05a2.3,2.3,0,0,0-1-1.6,2.48,2.48,0,0,0-1.35-.4H6A2.5,2.5,0,0,0,3.5,5.92v9.3l.15,4a2.4,2.4,0,0,0,2,2.35h3.2L8.4,25.62a.83.83,0,0,0,.75.9.82.82,0,0,0,.65-.2l5.25-4.75h9a2.45,2.45,0,0,0,2.45-2.45V6.92a14.13,14.13,0,0,0-.1-1.45ZM11.92,17.22H8.83L10,10.59H8.59l.48-2.76h4.5Zm4-7a2.85,2.85,0,0,0,.5.14l.78.24a1.37,1.37,0,0,1,.55.37.88.88,0,0,1,.24.64,1.22,1.22,0,0,1-.61,1.06,2.41,2.41,0,0,1-1.31.3,2.3,2.3,0,0,1-1.4-.38,1.39,1.39,0,0,1-.59-1.09h1.58a.26.26,0,0,0,.14.28.88.88,0,0,0,.39.08c.19,0,.29,0,.31-.16s0-.14-.12-.18a3.28,3.28,0,0,0-.51-.15,4.87,4.87,0,0,1-.77-.22,1.42,1.42,0,0,1-.54-.36.9.9,0,0,1-.24-.64l0-.28a1.17,1.17,0,0,1,.56-.79,2.3,2.3,0,0,1,1.3-.31,2.06,2.06,0,0,1,1.4.4,1.57,1.57,0,0,1,.56,1.06H16.58c0-.23-.2-.35-.52-.35a.62.62,0,0,0-.23,0,.12.12,0,0,0-.08.13C15.75,10.11,15.8,10.17,15.9,10.21Zm5.28-.05h-.67l-.2,1.1s0,.05,0,.08.09.2.27.2H21l-.25,1.37h-.61c-.95,0-1.43-.41-1.43-1.22a3.57,3.57,0,0,1,0-.46l.19-1.08h-.5l.24-1.34h.51l.17-1h1.62l-.18,1h.67Z" fill="url(#a)"/></svg>