<svg id="Group_1394" data-name="Group 1394" xmlns="http://www.w3.org/2000/svg" width="19.36" height="16.133" viewBox="0 0 19.36 16.133">
  <path id="Path_1471" data-name="Path 1471" d="M510.7,1504.758a7.832,7.832,0,0,1-2.524.987,3.917,3.917,0,0,0-2.9-1.285,4.023,4.023,0,0,0-3.97,4.073,4.157,4.157,0,0,0,.1.927,11.183,11.183,0,0,1-8.187-4.257,4.146,4.146,0,0,0-.537,2.05,4.1,4.1,0,0,0,1.767,3.39,3.9,3.9,0,0,1-1.8-.508v.05a4.049,4.049,0,0,0,3.188,3.993,3.782,3.782,0,0,1-1.047.143,3.873,3.873,0,0,1-.748-.072,3.987,3.987,0,0,0,3.71,2.827,7.843,7.843,0,0,1-4.933,1.744,7.934,7.934,0,0,1-.948-.056,11.059,11.059,0,0,0,6.088,1.828c7.307,0,11.3-6.2,11.3-11.587,0-.177,0-.354-.01-.528a8.145,8.145,0,0,0,1.981-2.108,7.764,7.764,0,0,1-2.281.641,4.064,4.064,0,0,0,1.747-2.252" transform="translate(-491.878 -1504.46)" fill="#0092d6"/>
</svg>
