<svg xmlns="http://www.w3.org/2000/svg" width="19.312" height="26.357" viewBox="0 0 19.312 26.357">
  <g id="Group_1483" data-name="Group 1483" transform="translate(0 0)">
    <path id="Path_1892" data-name="Path 1892" d="M21.292,6.808a6.056,6.056,0,1,1-6.055,6.056A6.057,6.057,0,0,1,21.292,6.808Z" transform="translate(-11.632 -6.808)" fill="#fff"/>
    <path id="Path_1893" data-name="Path 1893" d="M20.411,36.831A13.439,13.439,0,0,1,11.661,33.6a2.579,2.579,0,0,1-.906-1.961,6.108,6.108,0,0,1,6.137-6.106H23.94a6.1,6.1,0,0,1,6.128,6.106,2.573,2.573,0,0,1-.9,1.96A13.435,13.435,0,0,1,20.411,36.831Z" transform="translate(-10.755 -10.473)" fill="#fff"/>
  </g>
</svg>
